<svg xmlns="http://www.w3.org/2000/svg" viewBox="0 0 648.34 316.59"><title>Asset 1</title><g id="Layer_2" data-name="Layer 2"><g id="Ebene_1" data-name="Ebene 1"><path d="M154.39,56c-13.12,0-56.35-.58-65.6,4.36C80,65,77.45,74.69,77.45,84.1q0,13.7,11.66,21.92t43.47,20.62l.11,0q54.08,16,81.86,39.12t27.8,63.31q0,41.07-32.08,64.27t-85.12,23.21q-52.83,0-89.51-24.92T0,213.53a1.61,1.61,0,0,1,.08-.48h0A1.54,1.54,0,0,1,1.57,212H69.3a1.54,1.54,0,0,1,1.53,1.53q.38,26,13.36,37.07,13.36,11.45,41,11.45,22.66,0,33.79-9t11.12-23.52q0-16.68-10.9-25.56t-39.57-18.93q-58-18.81-86.09-40.1T5.38,83.67q0-39.14,32.72-63.3C59.92,4.25,87.38,0,121,0Z"/><path d="M385.4,56l-52.25-.12.42,260.71H261.28l-.42-260.71L170.37,56,137.16,0h215Z"/><path d="M504.12,105.28,555.45.27h83.41L549.67,154.69l98.67,161.9H560.65L505,204.52,449.29,316.59H365.88l94.18-161.9L368.31,0l85.33.27Z"/><polygon points="512.6 55.9 496.5 55.9 469.76 0.27 539.8 0.27 512.6 55.9"/></g></g></svg>